<svg width="96" height="79" viewBox="0 0 96 79" fill="none" xmlns="http://www.w3.org/2000/svg">
<path d="M50.8101 46.3143C40.9274 51.2871 29.8174 53.7254 18.5581 53.0866C12.1242 52.7215 7.17117 47.1082 7.59135 40.5924C8.01153 34.0766 13.6035 29.0112 20.0374 29.3763C34.38 30.1523 48.2157 23.1903 56.3337 11.1124C59.9621 5.68408 67.3075 4.23954 72.6372 7.86205C77.9669 11.4846 79.3262 18.9062 75.6977 24.3345C69.2581 33.8792 60.6927 41.3415 50.8101 46.3143Z" fill="#EDC75E"/>
<path d="M51.5658 47.8628C40.1589 53.6011 27.4391 56.3986 14.4406 55.6225C8.90201 55.2576 4.70137 50.5058 4.97871 44.8519C5.38969 39.2432 10.1235 34.9486 15.708 35.1778C34.5584 36.2738 52.8814 27.0563 63.4914 11.14C66.5754 6.43747 72.8893 5.1744 77.5519 8.34327C82.1708 11.4217 83.3614 17.8002 80.1876 22.5479C72.8872 33.5356 62.8829 42.1696 51.5658 47.8628Z" fill="#E18668"/>
<path d="M51.5805 47.8897C62.9836 42.1555 72.8943 33.5717 80.1911 22.5897C81.0515 21.3695 81.5111 20.0134 81.837 18.612C81.1292 17.8428 80.3756 17.2093 79.4423 16.666C73.9326 13.3614 66.7205 15.3006 63.4062 20.9048C56.0507 33.3789 42.6616 41.2368 28.3172 41.3622C21.8383 41.3576 16.6051 46.6892 16.5437 53.2453C16.5352 54.1496 16.5727 54.9183 16.7438 55.7323C28.8936 56.1479 40.8058 53.3078 51.5805 47.8897Z" fill="#DB5955"/>
<path d="M57.4497 59.9798C47.5671 64.9527 36.457 67.3909 25.1977 66.7521C18.7638 66.3871 13.8108 60.7737 14.231 54.2579C14.6512 47.7421 20.2431 42.6768 26.677 43.0418C41.0196 43.8178 54.8553 36.8558 62.9733 24.7779C66.6018 19.3496 73.9471 17.9051 79.2768 21.5276C84.6066 25.1501 85.9658 32.5718 82.3374 38C75.8978 47.5448 67.3324 55.007 57.4497 59.9798Z" fill="#EDC75E"/>
<path d="M45.5425 31.7354L44.1799 28.9198C43.1887 29.4189 42.1975 29.9179 41.2063 30.417L42.569 33.2326C42.9646 34.0501 43.903 34.3683 44.714 33.96C45.6151 33.5063 45.9381 32.5529 45.5425 31.7354Z" fill="#DB5955"/>
<path d="M22.4628 38.8874C23.2738 38.4791 23.5969 37.5257 23.2012 36.7082L22.4539 35.1641C21.2429 35.209 20.0758 35.3447 18.8208 35.2988L20.1835 38.1146C20.7132 38.9776 21.6517 39.2958 22.4628 38.8874Z" fill="#DB5955"/>
<path d="M53.601 27.6896C54.4119 27.2813 54.7349 26.328 54.3393 25.5107L53.0648 22.877C52.2056 23.6484 51.3024 24.3291 50.3553 24.9189L51.3661 27.0077C51.7617 27.8251 52.7901 28.0979 53.601 27.6896Z" fill="#DB5955"/>
<path d="M34.5014 37.2687C35.3122 36.8604 35.6353 35.9071 35.2397 35.0898L34.2288 33.001C33.1499 33.3184 32.0709 33.6357 30.9919 33.9531L32.2665 36.5868C32.7522 37.3588 33.6905 37.677 34.5014 37.2687Z" fill="#DB5955"/>
<path d="M62.1867 18.9649C62.9976 18.5566 63.3207 17.6032 62.9251 16.7857L61.5624 13.9701C60.791 14.9233 60.0196 15.8765 59.2482 16.8297L59.9955 18.3738C60.4372 19.055 61.3757 19.3732 62.1867 18.9649Z" fill="#DB5955"/>
<path d="M45.4118 35.1651C44.0656 35.8416 42.5462 35.9306 41.2105 35.4777C40.0981 35.0251 38.7978 35.566 38.251 36.74C37.6583 38.0495 36.4436 38.9971 35.0098 39.4928C33.576 39.9885 32.0587 39.8517 30.8148 39.1278C29.7483 38.5397 28.4501 38.8548 27.6821 39.8027C26.912 40.9766 25.5199 41.7885 24.0443 41.9679C22.5688 42.1474 21.0536 41.7847 19.9453 40.8803C19.2357 40.3376 19.1564 39.2534 19.699 38.5311C20.2417 37.8088 21.3144 37.7194 22.024 38.262C22.4227 38.6238 23.0467 38.7598 23.6728 38.67C24.2989 38.5802 24.7936 38.2192 25.0649 37.8581C26.8285 35.5106 29.9173 34.7453 32.4051 36.193C32.8935 36.5096 33.4737 36.5553 34.056 36.3751C34.6383 36.1949 35.0432 35.879 35.3166 35.292C36.6356 32.7183 39.5951 31.456 42.3104 32.4521C43.379 32.8144 44.7251 32.138 45.0027 31.0993C45.8772 28.2993 48.6613 26.6755 51.4705 27.1748C51.961 27.2655 52.5871 27.1757 53.0818 26.8148C53.5764 26.4538 53.8936 25.9572 53.9437 25.37C54.3277 22.4793 56.8928 20.4035 59.7061 20.4511C60.2863 20.4968 60.8248 20.2262 61.2756 19.7749C61.7264 19.3235 61.9101 18.7816 61.9602 18.1944C61.9685 17.291 62.6906 16.4785 63.5839 16.4792C64.4772 16.48 65.2744 17.2034 65.2661 18.1069C65.2974 19.5524 64.6588 20.9974 63.6215 22.0807C62.5842 23.1639 61.1504 23.6596 59.7207 23.7035C58.4706 23.6573 57.4792 24.6051 57.2893 25.8246C57.0973 27.2699 56.2813 28.5792 55.0228 29.4364C53.7643 30.2936 52.3763 30.6538 50.905 30.3815C49.7007 30.1998 48.5779 30.8764 48.1646 32.0958C47.6616 33.3602 46.6682 34.5338 45.4118 35.1651Z" fill="#EDC75E"/>
</svg>
