<svg width="340" height="358" viewBox="0 0 340 358" fill="none" xmlns="http://www.w3.org/2000/svg">
<circle opacity="0.1" cx="170" cy="188" r="170" fill="white"/>
<path d="M219.055 243.476C216.315 243.476 216.315 247.837 219.055 247.837C221.795 247.745 221.795 243.476 219.055 243.476Z" fill="#FFF1CE"/>
<path d="M57.0552 204.867C54.3149 204.867 54.3149 209.229 57.0552 209.229C59.7954 209.136 59.7954 204.867 57.0552 204.867Z" fill="#FFF1CE"/>
<path d="M286.581 288.213C285.394 288.492 284.206 289.791 283.476 290.44C282.106 291.647 280.644 292.575 279 293.41C279.548 294.245 280.827 294.709 281.74 294.895C282.745 295.081 283.658 294.895 284.663 294.709C285.12 294.617 285.577 294.431 286.033 294.245C287.403 293.41 289.778 289.976 288.043 288.584C287.586 288.213 287.038 288.12 286.581 288.213Z" fill="#7CA661"/>
<path d="M153.016 231.295H152.925C152.377 231.388 151.92 232.037 152.012 232.594C152.012 233.151 152.377 233.801 152.925 233.893H153.016C153.839 234.079 154.661 233.522 154.661 232.594C154.661 231.666 153.839 231.202 153.016 231.295Z" fill="#FFF1CE"/>
<path d="M168.658 4.63944C167.654 3.71142 167.197 2.04097 166.74 0.648926C166.009 1.39135 165.096 1.85537 164 1.94817C164.457 3.98983 165.644 5.84588 167.471 6.7739C167.562 6.12429 168.11 5.10345 168.658 4.63944Z" fill="#AEDC90"/>
<path d="M60.8496 118.506C58.3835 118.506 58.3835 122.404 60.8496 122.404C63.3158 122.404 63.3158 118.506 60.8496 118.506Z" fill="#FFF1CE"/>
<path d="M4.84964 134.762C2.38345 134.762 2.38345 138.66 4.84964 138.66C7.31583 138.66 7.31583 134.762 4.84964 134.762Z" fill="#FFF1CE"/>
<path d="M140.129 121.012L137.754 118.506C137.754 118.506 137.389 124.539 132 126.766L134.192 128.436C134.192 128.436 138.759 126.58 140.129 121.012Z" fill="#AEDC90"/>
<path d="M285.85 96.1538C283.383 96.1538 283.383 100.052 285.85 100.052C288.316 100.052 288.316 96.1538 285.85 96.1538Z" fill="#FFF1CE"/>
<path d="M48.7544 79.9027C48.1151 79.253 47.293 78.8818 46.3796 78.8818C45.4662 78.8818 44.5528 79.253 44.0047 79.9027C43.4567 80.5523 43 81.4803 43 82.3155C43 83.2436 43.3654 84.1716 44.0047 84.7284C44.6441 85.378 45.4662 85.7492 46.3796 85.7492C47.293 85.7492 48.2064 85.378 48.7544 84.7284C49.3938 84.1716 49.7592 83.1508 49.7592 82.3155C49.6678 81.4803 49.3938 80.5523 48.7544 79.9027Z" fill="#FFF1CE"/>
<path d="M195 61.6094C197.284 72.9313 203.951 82.6756 210.437 92.1414C212.994 95.8536 215.734 100.494 219.479 103.185C220.575 101.793 215.643 94.8327 214.729 93.2551C212.72 89.6358 210.619 86.1093 208.427 82.5828C204.134 75.5298 199.658 68.5696 195 61.6094Z" fill="#7CA661"/>
<path d="M210.071 85.5523C208.245 78.7777 207.24 71.7247 204.408 65.2285C212.537 76.4576 218.475 88.8932 221.58 103.092C219.388 101.978 217.744 101.236 216.282 99.1943C213.177 95.2966 211.35 90.378 210.071 85.5523Z" fill="#AEDC90"/>
<path d="M197.832 82.6753C200.389 87.3154 203.495 91.5843 207.331 95.2036C209.797 97.5237 217.927 104.484 221.489 103.185C218.84 99.287 213.268 95.1109 209.797 92.0484C205.961 88.8003 201.942 85.645 197.832 82.6753Z" fill="#AEDC90"/>
<path d="M235.007 107.175C235.19 115.528 223.589 120.261 217.104 118.033C214.273 117.105 212.446 114.878 212.903 110.98C213.359 107.175 215.095 103.463 217.926 101.05C220.849 98.6376 224.868 97.524 228.522 98.7304C232.084 99.9369 234.916 103.371 235.007 107.175Z" fill="#EA7273"/>
<path d="M235.007 107.176C235.19 115.528 223.589 120.261 217.104 118.033C217.287 117.941 217.561 117.848 217.835 117.662C220.941 116.549 223.955 116.27 226.786 114.321C230.075 112.001 232.449 107.825 231.353 103.927C230.805 101.979 229.527 100.401 228.43 98.7305C232.084 99.9369 234.916 103.371 235.007 107.176Z" fill="#EA6061"/>
<path d="M215.369 112.651C215.552 112.929 215.734 113.208 216.008 113.393C216.374 113.672 216.922 113.764 217.47 113.672C218.84 113.486 219.936 112.465 220.393 111.166C220.849 109.867 220.667 108.382 220.027 107.268C219.114 105.598 217.013 104.763 215.734 106.526C214.456 108.104 214.364 110.888 215.369 112.651Z" fill="#EA8889"/>
<path d="M222.493 103.092C222.219 102.628 221.671 102.442 221.123 102.442C220.758 102.442 220.21 102.535 219.936 102.814C219.57 103.092 219.296 103.649 219.479 104.206C219.57 104.855 219.936 105.319 220.575 105.505C221.123 105.69 221.763 105.598 222.219 105.134C222.767 104.67 222.859 103.742 222.493 103.092Z" fill="#EA8889"/>
<path d="M221.854 106.062C221.854 106.062 221.763 106.062 221.671 106.062H221.58C221.489 106.062 221.397 106.062 221.306 106.062C221.306 106.062 221.215 106.062 221.215 106.155C220.94 106.248 220.849 106.526 220.758 106.804C220.758 106.99 220.758 107.176 220.758 107.361V107.454C220.849 107.64 221.032 107.825 221.215 107.918C221.306 108.011 221.489 108.011 221.58 108.011C222.128 108.196 222.676 107.732 222.767 107.083C222.859 106.619 222.402 106.062 221.854 106.062Z" fill="#EA8889"/>
<path d="M227.517 115.435C227.7 116.27 229.161 116.177 229.892 116.363C230.896 116.641 231.536 117.662 231.536 118.683C231.536 119.611 231.079 120.539 231.536 121.281C231.993 121.931 232.997 121.931 233.728 121.838C232.997 121.838 232.267 121.189 232.084 120.446C231.901 119.704 232.267 118.869 232.358 118.126C232.541 117.012 232.267 115.713 231.536 114.878C230.714 114.043 227.7 113.115 227.426 114.971C227.517 115.249 227.517 115.342 227.517 115.435Z" fill="#EA6061"/>
<path d="M232.815 108.568C232.541 109.032 232.541 109.496 232.358 109.96C232.176 110.609 231.81 111.259 231.445 111.908C230.714 113.022 229.801 113.765 228.705 114.6C228.431 114.785 228.613 115.249 228.979 115.064C230.257 114.507 231.262 113.393 231.993 112.28C232.632 111.352 233.546 109.681 233.18 108.568C233.089 108.382 232.906 108.475 232.815 108.568Z" fill="white"/>
<path d="M232.906 104.762C232.815 104.669 232.724 104.669 232.632 104.669H232.541C232.45 104.669 232.45 104.669 232.45 104.762C232.267 105.133 232.541 105.412 232.724 105.783C232.906 106.247 232.906 106.711 232.906 107.268C232.906 107.639 233.454 107.639 233.454 107.268C233.454 106.34 233.272 105.597 232.906 104.762Z" fill="white"/>
<path d="M33.9352 230.267C32.3824 231.195 30.921 232.03 29.3682 232.958C28.4548 233.515 27.5414 233.979 26.902 234.814C26.1713 235.65 25.4406 237.134 26.628 237.877C27.8154 238.619 30.0076 237.413 31.0123 236.763C32.0171 236.114 33.0218 235.371 33.6612 234.258C34.94 232.216 33.7525 230.36 33.9352 230.267Z" fill="#7CA661"/>
<path d="M76.1511 113.279C76.6078 115.599 78.252 117.455 80.2614 118.661C82.1796 119.775 84.2804 119.961 86.4726 119.868C86.5639 119.868 86.6552 119.868 86.7466 119.868C86.7466 119.775 86.7466 119.682 86.7466 119.589C86.5639 116.62 85.5592 113.836 83.9151 111.33C82.3623 109.01 80.2614 107.154 78.1606 105.298C76.6078 107.618 75.6031 110.68 76.1511 113.279Z" fill="#AEDC90"/>
<path d="M76.1511 113.279C76.6078 115.599 78.252 117.455 80.2614 118.661C82.1796 119.775 84.2804 119.961 86.4726 119.868C86.5639 119.868 86.6552 119.868 86.7466 119.868C77.2472 114.485 78.1606 105.298 78.1606 105.298C76.6078 107.618 75.6031 110.68 76.1511 113.279Z" fill="#7CA661"/>
<path d="M78.5257 109.938C78.9824 112.165 80.2612 114.393 81.7226 116.063C83.0014 117.548 84.5542 118.94 86.381 119.868C86.4723 119.868 86.5637 119.868 86.655 119.868C86.655 119.775 86.655 119.682 86.655 119.59C84.9196 118.569 83.2754 117.455 81.9967 115.785C81.2659 114.857 80.6266 113.929 80.0785 112.908C79.5305 111.887 79.2565 110.866 78.8911 109.845C78.7998 109.66 78.5257 109.753 78.5257 109.938Z" fill="#39700B"/>
<path d="M256.595 60.4464C256.139 62.7664 254.495 64.6225 252.485 65.8289C250.567 66.9426 248.466 67.1281 246.274 67.0353C246.183 67.0353 246.091 67.0353 246 67.0353C246 66.9425 246 66.8497 246 66.7569C246.183 63.7873 247.187 61.0032 248.832 58.4975C250.384 56.1774 252.485 54.3214 254.586 52.4653C256.139 54.7854 257.143 57.8479 256.595 60.4464Z" fill="#AEDC90"/>
<path d="M256.595 60.4464C256.139 62.7664 254.495 64.6225 252.485 65.8289C250.567 66.9426 248.466 67.1281 246.274 67.0353C246.183 67.0353 246.091 67.0353 246 67.0353C255.499 61.6528 254.586 52.4653 254.586 52.4653C256.139 54.7854 257.143 57.8479 256.595 60.4464Z" fill="#7CA661"/>
<path d="M254.221 57.1056C253.764 59.3329 252.485 61.5601 251.024 63.2306C249.745 64.7154 248.192 66.1074 246.366 67.0355C246.274 67.0355 246.183 67.0355 246.092 67.0355C246.092 66.9427 246.092 66.8499 246.092 66.7571C247.827 65.7362 249.471 64.6226 250.75 62.9522C251.481 62.0241 252.12 61.0961 252.668 60.0753C253.216 59.0544 253.49 58.0336 253.855 57.0128C253.947 56.8272 254.221 56.92 254.221 57.1056Z" fill="#39700B"/>
<path d="M171.754 206.904C171.115 206.254 170.293 205.883 169.38 205.883C168.466 205.883 167.553 206.254 167.005 206.904C166.457 207.553 166 208.481 166 209.317C166 210.245 166.365 211.173 167.005 211.729C167.644 212.379 168.466 212.75 169.38 212.75C170.293 212.75 171.206 212.379 171.754 211.729C172.394 211.173 172.759 210.152 172.759 209.317C172.668 208.481 172.394 207.553 171.754 206.904Z" fill="#FFF1CE"/>
<path d="M180.754 141.879C180.115 141.23 179.293 140.858 178.38 140.858C177.466 140.858 176.553 141.23 176.005 141.879C175.457 142.529 175 143.457 175 144.292C175 145.22 175.365 146.148 176.005 146.705C176.644 147.355 177.466 147.726 178.38 147.726C179.293 147.726 180.206 147.355 180.754 146.705C181.394 146.148 181.759 145.127 181.759 144.292C181.668 143.457 181.394 142.529 180.754 141.879Z" fill="#FFF1CE"/>
<path d="M248.754 124.607C248.115 123.958 247.293 123.586 246.38 123.586C245.466 123.586 244.553 123.958 244.005 124.607C243.457 125.257 243 126.185 243 127.02C243 127.948 243.365 128.876 244.005 129.433C244.644 130.083 245.466 130.454 246.38 130.454C247.293 130.454 248.206 130.083 248.754 129.433C249.394 128.876 249.759 127.855 249.759 127.02C249.668 126.185 249.394 125.257 248.754 124.607Z" fill="#FFF1CE"/>
<path d="M47.7544 268.88C47.1151 268.231 46.293 267.859 45.3796 267.859C44.4662 267.859 43.5528 268.231 43.0047 268.88C42.4567 269.53 42 270.458 42 271.293C42 272.221 42.3654 273.149 43.0047 273.706C43.6441 274.356 44.4662 274.727 45.3796 274.727C46.293 274.727 47.2064 274.356 47.7544 273.706C48.3938 273.149 48.7592 272.128 48.7592 271.293C48.6678 270.458 48.3938 269.53 47.7544 268.88Z" fill="#FFF1CE"/>
<path d="M258.415 261.637C261.127 259.96 264.243 258.712 267.335 257.648C272.668 255.681 277.898 253.794 283.23 251.827C295.634 247.295 308.232 242.697 321.302 240.124C325.276 239.368 328.621 237.779 332.601 237.678C309.925 249.465 284.355 257.303 258.415 261.637Z" fill="#7CA661"/>
<path d="M253.596 263.242C261.428 259.844 269.025 256.132 276.488 252.028C279.872 250.161 283.359 248.216 286.284 245.631C289.414 242.888 291.891 239.494 294.682 236.517C299.715 231.234 305.885 227.138 312.043 223.133C311.12 229.453 307.912 234.896 303.441 239.415C298.879 243.922 293.453 247.28 287.971 250.351C284.883 252.072 281.807 253.701 278.508 254.925C276.586 255.499 258.166 263.596 253.596 263.242Z" fill="#AEDC90"/>
<path d="M268.051 256.556C268.051 256.556 267.284 258.876 268.263 259.852C268.263 259.852 250.351 266.981 246.327 265.303C242.395 263.637 244.816 261.359 247.341 261.803C249.866 262.247 263.304 258.978 268.051 256.556Z" fill="white"/>
</svg>
