<svg width="144" height="126" viewBox="0 0 144 126" fill="none" xmlns="http://www.w3.org/2000/svg">
<path d="M104.62 47.9018C104.62 47.9018 105.354 40.853 101.248 39.8618C97.2385 38.9391 91.5345 38.1416 93.3453 36.629C95.1561 35.1165 93.9404 33.4493 93.9404 33.4493L97.6145 34.9433C97.6145 34.9433 91.7746 29.6413 92.4163 28.8457C93.0581 28.0501 94.0158 28.139 94.0158 28.139C94.0158 28.139 93.2461 26.0522 93.2906 25.2754C93.3352 24.4987 96.7592 26.0363 96.7592 26.0363L96.7223 24.7612L99.1944 28.3448L100.127 27.7547C100.127 27.7547 104.042 31.7697 103.815 36.6793C103.815 36.6793 106.455 32.3732 100.648 25.6985C100.648 25.6985 98.1647 21.5189 99.1961 20.4843L100.708 20.8181L100.235 17.3978C100.235 17.3978 101.468 18.1222 102.655 20.1362C103.842 22.1502 105.3 22.1518 105.3 22.1518C105.3 22.1518 100.481 14.7063 100.642 12.5422L102.418 12.9154C102.418 12.9154 101.15 10.403 101.683 8.94283L103.566 10.4935C103.566 10.4935 103.853 8.05111 104.632 7.57317L106.278 9.2506C106.278 9.2506 106.809 4.62963 107.661 3.5411C107.661 3.5411 109.733 6.25466 109.353 7.60262L110.982 6.54912L111.527 9.35877L114.049 6.95297C114.049 6.95297 114.396 10.6516 113.419 12.0184L115.507 10.6283C115.507 10.6283 114.362 19.8848 110.645 22.3285C110.645 22.3285 112.78 23.3224 115.928 16.8771C115.928 16.8771 117.973 15.7508 117.184 18.7935C116.479 21.8217 118.263 20.143 118.263 20.143C118.263 20.143 117.751 26.982 113.489 30.2897C109.228 33.5975 109.284 37.0906 109.284 37.0906C109.284 37.0906 112.268 33.8352 113.844 31.9365C115.42 30.0377 116.737 27.0737 116.737 27.0737L117.858 28.1595L120.397 24.8108C120.397 24.8108 121.454 24.4553 121.043 26.663C121.043 26.663 123.986 26.8323 123.441 27.6964C122.897 28.5605 120.599 30.2435 120.599 30.2435L122.511 31.4474C122.511 31.4474 120.524 35.5538 116.729 36.4731L119.961 37.3608L118.984 38.7277C118.984 38.7277 120.685 40.7374 119.322 41.3173C117.875 41.9118 112.01 39.6045 110.044 41.7422C108.148 43.7823 105.242 48.562 105.242 48.562L104.62 47.9018Z" fill="#497C74"/>
<path d="M99.0212 60.8184C99.0212 60.8184 94.4845 57.6857 92.1728 60.3085C89.9443 62.9168 87.1563 66.8176 86.678 64.9384C86.2829 63.0446 84.5345 63.3502 84.5345 63.3502L87.0109 61.2106C87.0109 61.2106 80.8035 63.5755 80.5014 62.775C80.1993 61.9744 80.604 61.3063 80.604 61.3063C80.604 61.3063 78.7742 61.114 78.2069 60.7865C77.6396 60.459 80.1431 58.4853 80.1431 58.4853L79.2156 58.0501L82.8227 57.5903L82.7569 56.6631C82.7569 56.6631 87.3244 55.2675 90.8115 57.2182C90.8115 57.2182 88.6061 53.6781 81.4441 55.4418C81.4441 55.4418 77.38 55.7254 77.0102 54.5099L77.8737 53.5056L75.1455 52.5317C75.1455 52.5317 76.1601 51.9277 78.1021 51.7589C80.0441 51.5902 80.6443 50.5466 80.6443 50.5466C80.6443 50.5466 73.2364 51.3292 71.7145 50.4005L72.7174 49.2011C72.7174 49.2011 70.3185 49.1937 69.4897 48.3145L71.3368 47.565C71.3368 47.565 69.6078 46.4164 69.5826 45.7381L71.4568 45.1545C71.4568 45.1545 68.2059 43.0772 67.7799 42.0423C67.7799 42.0423 70.5273 41.5621 71.4122 42.2608L71.3212 40.6553L73.6485 41.2726L72.7713 38.5244C72.7713 38.5244 75.6931 39.6352 76.3127 40.807L76.0571 38.7182C76.0571 38.7182 82.406 42.985 82.836 46.6647C82.836 46.6647 84.352 45.461 80.8473 40.7826C80.8473 40.7826 80.7989 38.9136 82.7758 40.5308C84.6694 42.1627 84.1776 40.2005 84.1776 40.2005C84.1776 40.2005 89.0201 43.1091 89.8218 47.4919C90.6236 51.8747 93.2259 53.1267 93.2259 53.1267C93.2259 53.1267 91.9769 49.6754 91.1656 47.8544C90.4375 46.0189 88.7258 43.9286 88.7258 43.9286L89.934 43.4614L88.3927 40.3173C88.3927 40.3173 88.5069 39.4439 90.0559 40.5386C90.0559 40.5386 91.3396 38.4368 91.7946 39.1253C92.2496 39.8139 92.5459 42.1516 92.5459 42.1516L94.1859 41.1822C94.1859 41.1822 96.4765 44.1954 95.6188 47.3322L97.5957 45.2799L98.2288 46.5347C98.2288 46.5347 100.366 45.9904 100.32 47.2786C100.274 48.5668 96.225 52.0905 97.0073 54.2579C97.7896 56.4253 99.6078 59.6918 99.6078 59.6918L99.0212 60.8184Z" fill="#497C74"/>
<path d="M104.578 65.0245C104.578 65.0245 108.946 61.3601 107.112 58.5234C105.279 55.6868 102.353 51.9317 104.253 52.0264C106.152 52.1211 106.38 50.3747 106.38 50.3747L107.728 53.3816C107.728 53.3816 107.253 46.809 108.099 46.7465C108.945 46.684 109.456 47.1919 109.456 47.1919C109.456 47.1919 110.198 45.4412 110.643 45.022C111.088 44.6029 112.242 47.473 112.242 47.473L112.966 46.6639L112.357 50.2688L113.243 50.4552C113.243 50.4552 113.24 55.1488 110.359 57.956C110.359 57.956 114.37 56.8284 114.786 49.4176C114.786 49.4176 115.675 45.4226 116.964 45.4532L117.653 46.5273L119.326 44.1872C119.326 44.1872 119.599 45.334 119.134 47.2071C118.67 49.0802 119.498 49.9593 119.498 49.9593C119.498 49.9593 120.871 42.6373 122.22 41.4629L123.033 42.7713C123.033 42.7713 123.693 40.5228 124.874 39.8898L125.116 41.8953C125.116 41.8953 126.688 40.5113 127.409 40.7268L127.471 42.6785C127.471 42.6785 130.392 40.1201 131.571 39.9994C131.571 39.9994 131.255 42.7849 130.255 43.4718L131.848 43.7907L130.551 45.8092L133.449 45.7293C133.449 45.7293 131.54 48.1961 130.222 48.5118L132.245 48.8409C132.245 48.8409 126.292 53.8063 122.675 53.1584C122.675 53.1584 123.403 54.9937 128.958 52.8284C128.958 52.8284 130.828 53.2695 128.66 54.6724C126.491 56.0752 128.557 56.1409 128.557 56.1409C128.557 56.1409 124.313 60.0396 119.865 59.5372C115.429 59.1178 113.48 61.3356 113.48 61.3356C113.48 61.3356 117.114 61.0419 119.125 60.7757C121.137 60.5095 123.622 59.4778 123.622 59.4778L123.742 60.7367L127.156 60.1402C127.156 60.1402 127.986 60.507 126.457 61.6275C126.457 61.6275 128.127 63.4687 127.295 63.6142C126.476 63.8426 124.203 63.5572 124.203 63.5572L124.681 65.4362C124.681 65.4362 121.141 66.8229 118.388 65.1709L119.807 67.568L118.488 67.8837C118.488 67.8837 118.425 70.1134 117.151 69.6534C115.974 69.2618 113.732 64.4487 111.36 64.6072C108.988 64.7657 105.463 65.7231 105.463 65.7231L104.578 65.0245Z" fill="#497C74"/>
<path d="M127.829 48.7461C127.259 48.9311 126.619 49.2136 125.966 49.4132C125.077 49.7394 124.09 49.9972 123.187 50.2405C124.999 48.2156 126.811 46.1908 128.526 44.0975C126.923 45.8295 125.237 47.5761 123.538 49.2397C123.72 48.7808 123.819 48.3365 123.988 47.7946C124.228 46.6423 124.385 45.5045 124.375 44.3959C124.218 45.5336 124.061 46.6714 123.641 47.7698C123.303 48.8536 122.8 49.9666 122.061 50.6935L121.782 51.0839C121.699 51.0984 121.713 51.1815 121.629 51.196C119.846 52.8741 118.064 54.5522 116.267 56.1473C116.323 55.9667 116.38 55.786 116.436 55.6054C116.661 54.8828 116.802 54.1748 116.86 53.4814C117.06 52.08 117.162 50.6101 117.265 49.1402C117.079 50.6247 116.879 52.0261 116.597 53.442C116.455 54.15 116.23 54.8726 115.992 55.5121C115.74 56.0686 115.502 56.7081 115.139 57.1131C114.916 57.3228 114.694 57.5326 114.387 57.7569C112.508 59.3666 110.518 60.8247 108.514 62.1997C108.696 61.7409 108.781 61.2135 108.963 60.7546C109.217 59.6854 109.401 58.7137 109.572 57.659C109.829 55.5642 110.087 53.4693 110.178 51.4036C110.004 53.4839 109.663 55.5933 109.308 57.6197C109.138 58.6744 108.87 59.6606 108.603 60.6468C108.378 61.3694 108.153 62.0919 107.832 62.746C107.442 62.9849 107.066 63.3068 106.677 63.5457C105.272 64.3891 103.95 65.2179 102.545 66.0613L100.278 67.397C100.671 66.1326 101.078 64.9512 101.471 63.6867C103.27 57.9063 104.791 52.0035 106.145 46.1298C106.287 45.4218 106.442 44.7968 106.666 44.0743C108.742 42.0888 110.734 40.1179 112.796 38.0494C113.827 37.0151 114.844 35.8979 115.875 34.8636C116.892 33.7463 117.826 32.6436 118.65 31.3893C117.813 32.5605 116.712 33.6924 115.681 34.7267C114.65 35.7609 113.536 36.8097 112.505 37.844C110.639 39.5367 108.773 41.2293 106.907 42.922C107.275 40.9787 107.573 39.1329 107.858 37.2042C108.03 35.6367 108.203 34.0692 108.375 32.5017C109.866 31.1309 111.162 29.6232 112.361 28.0471C113.631 26.3733 114.79 24.548 115.491 22.5464C114.693 24.4795 113.437 26.2363 112.071 27.8416C110.914 29.1541 109.743 30.3836 108.393 31.5591C108.466 30.436 108.54 29.3128 108.614 28.1896C108.761 25.9432 108.811 23.6284 108.875 21.3966L109.014 21.2014C109.728 19.7957 110.357 18.4045 111.07 16.9987C111.379 16.2616 111.7 15.6075 112.008 14.8704C112.316 14.1333 112.541 13.4107 112.766 12.6882C112.541 13.4107 112.233 14.1479 111.828 14.8165C111.506 15.4706 111.115 16.2223 110.71 16.8909C110.109 17.9354 109.509 18.9798 108.908 20.0243C108.908 20.0243 108.908 20.0243 108.894 19.9413C108.854 19.6922 108.896 19.4285 108.856 19.1794C108.881 16.1857 108.725 13.1381 108.487 10.105C108.532 13.0011 108.493 15.9118 108.454 18.8225C108.179 18.1873 107.918 17.6351 107.559 17.0145C106.855 15.8563 105.985 14.7273 105.045 13.6958C105.902 14.7418 106.619 15.983 107.239 17.1558C107.514 17.791 107.79 18.4262 107.968 18.9929C108.16 19.6426 108.268 20.3069 108.197 20.9173L108.247 22.275C108.142 24.2577 108.024 26.1573 107.92 28.14C107.805 29.0141 107.774 29.8736 107.66 30.7477C107.523 30.4301 107.399 30.1955 107.261 29.8779C106.875 29.0912 106.323 28.3337 105.868 27.6446C104.86 26.1979 103.782 24.8489 102.635 23.5974C103.712 24.9465 104.72 26.3931 105.561 27.8689C106.03 28.641 106.402 29.3447 106.788 30.1314C107.09 30.9326 107.393 31.7339 107.348 32.5103L107.401 33.3553C107.271 34.6591 107.044 35.8944 106.914 37.1983C106.602 38.9609 106.29 40.7236 105.978 42.4863C105.703 41.8512 105.345 41.2305 104.986 40.6099C104.38 39.5202 103.606 38.4596 102.93 37.4675C101.48 35.4148 99.8776 33.4743 98.2749 31.5337C99.7943 33.4888 101.327 35.527 102.61 37.6088C103.3 38.684 103.907 39.7737 104.513 40.8634C105.009 41.8016 105.436 42.8374 105.696 43.9023C105.554 44.6103 105.343 45.4159 105.118 46.1384C103.822 51.3187 102.332 56.362 100.758 61.4199C100.274 61.0775 99.8726 60.7206 99.4579 60.2806C98.6556 59.5667 97.8668 58.9359 97.0781 58.305C96.4618 56.1067 95.7485 53.8399 95.0489 51.6561C94.6923 50.5227 94.2388 49.3208 93.8822 48.1874C93.4422 47.0686 92.9887 45.8667 92.3957 44.86C92.919 45.9643 93.3589 47.0832 93.7291 48.2996C94.0857 49.433 94.4559 50.6494 94.7291 51.7974C95.3048 53.7466 95.8106 55.7935 96.3029 57.7572C95.3204 56.9895 94.2545 56.2362 93.2022 55.566C91.8456 54.6074 90.5026 53.7318 89.0763 52.8707C88.6519 51.3221 88.0472 49.7196 87.303 48.3123C86.5316 46.7389 85.6072 45.2777 84.4464 43.9432C85.5239 45.2923 86.3786 46.8511 87.0666 48.439C87.617 49.7094 88.0143 51.0919 88.4116 52.4744C87.8302 52.0636 87.1791 51.7503 86.5977 51.3395C84.7973 50.2876 82.9137 49.2502 80.9602 48.3105L80.9466 48.2274C80.1734 47.1668 79.4137 46.1893 78.6404 45.1287C78.2121 44.6057 77.7974 44.1657 77.3691 43.6427C76.9544 43.2027 76.5261 42.6797 76.0281 42.2543C76.5261 42.6797 76.8711 43.2173 77.2994 43.7403C77.6443 44.2778 78.0726 44.8009 78.4176 45.3384C78.9699 46.096 79.4525 46.9512 79.9215 47.7233C79.8381 47.7379 79.8246 47.6548 79.7412 47.6694C77.4138 46.5388 75.003 45.4227 72.6193 44.4727C74.6832 45.564 76.8305 46.6407 78.8944 47.732C78.3808 47.7363 77.9506 47.7261 77.4371 47.7304C76.2569 47.8513 75.1736 48.0406 74.0206 48.3275C75.1872 48.1236 76.284 48.0173 77.3944 47.9941C78.5049 47.9709 79.6424 48.1137 80.5843 48.6324L80.9447 48.7402C82.7315 49.7091 84.5319 50.761 86.3322 51.8129C86.7198 52.0868 87.1074 52.3607 87.4814 52.5516C87.2178 52.5122 87.0512 52.5414 86.8012 52.585C86.0377 52.6331 85.3575 52.6665 84.6075 52.7976C83.1909 53.0452 81.6909 53.3073 80.3015 53.7209C81.7181 53.4734 83.1347 53.2258 84.5784 53.1443C85.342 53.0963 86.0222 53.0628 86.7159 53.1124C87.4097 53.162 88.1868 53.197 88.6713 53.5394L88.9484 53.6617C90.1945 54.4689 91.4406 55.276 92.617 56.1808C93.5026 56.8801 94.3882 57.5794 95.2739 58.2787C94.7468 58.2 94.1635 58.3019 93.5666 58.3208C92.5531 58.4125 91.4562 58.5188 90.4563 58.6936C88.373 59.0576 86.2898 59.4217 84.2337 59.9518C86.3034 59.5047 88.4002 59.2237 90.497 58.9427C91.5105 58.851 92.6073 58.7447 93.6344 58.736C94.4949 58.7565 95.3553 58.7769 96.1595 58.978C96.9618 59.6919 97.8475 60.3912 98.5665 61.1196C99.1052 61.7942 99.644 62.4687 100.113 63.2408C100.043 63.3384 100.07 63.5045 100.001 63.6021C99.0182 66.5069 98.0222 69.3286 96.9293 72.0819C95.8364 74.8351 94.5768 77.6175 93.3037 80.3169L94.98 81.1342C96.2396 78.3518 97.4022 75.501 98.4816 72.6647C98.7761 71.8445 99.0706 71.0244 99.2954 70.3018C101.912 68.4781 104.625 66.7228 107.338 64.9676C107.644 64.7432 107.95 64.5189 108.173 64.3092C110.394 64.2627 112.698 64.2016 114.919 64.1552C116.112 64.1174 117.389 64.065 118.57 63.9442C119.75 63.8233 121.027 63.771 122.263 63.4695C121.013 63.6879 119.82 63.7257 118.639 63.8466C117.446 63.8844 116.169 63.9367 114.961 63.8915C112.99 63.8943 110.923 63.8286 108.952 63.8314C111.095 62.2611 113.058 60.6369 114.994 58.8466C115.217 58.6369 115.44 58.4271 115.663 58.2174C117.287 58.1898 118.883 57.9961 120.467 57.7194C122.217 57.4136 123.939 56.9417 125.441 56.1668C123.842 56.8732 122.106 57.2621 120.426 57.4703C119.079 57.6203 117.635 57.7018 116.261 57.6857C118.281 55.8808 120.189 53.9245 122.015 51.9827C122.085 51.8851 122.238 51.7729 122.308 51.6753L122.391 51.6608C123.6 51.1932 124.809 50.7257 126.019 50.2581C126.575 49.9901 127.214 49.7075 127.77 49.4395C128.327 49.1715 128.966 48.8889 129.509 48.5379C129.038 48.2785 128.468 48.4635 127.829 48.7461Z" fill="#579485"/>
<path d="M61.3181 57.6562C61.0972 57.3536 60.8199 57.2316 60.5291 57.0266C59.7807 56.6459 59.3819 55.7771 59.4138 54.918C59.4003 54.835 59.4703 54.7374 59.4433 54.5714C59.5574 51.052 57.5992 47.9818 55.155 47.7281C54.8912 47.6891 54.544 47.6647 54.2937 47.7087C53.793 47.7965 53.1685 47.6501 52.7538 47.2109C51.1084 45.5367 49.0275 44.8778 47.2594 45.615C45.4913 46.3522 44.5096 48.2315 44.4703 50.6282C44.4814 51.2237 44.1452 51.7948 43.6851 52.1317C43.4618 52.3416 43.2384 52.5515 43.0151 52.7614C41.4495 54.7433 42.1132 58.2968 44.658 60.7519C44.7549 60.8202 44.8518 60.8886 44.8653 60.9716C45.4739 61.5475 45.7892 62.431 45.4935 63.2511C45.3672 63.5293 45.3377 63.8759 45.3083 64.2224C45.3414 66.009 47.1266 67.4879 49.1131 67.5659C49.9745 67.5854 50.7119 67.3705 51.3389 67.0044C51.9659 66.6383 52.7438 66.6724 53.3389 67.1654C54.626 68.2196 56.2088 68.4539 56.2088 68.4539C56.2088 68.4539 57.1315 67.2676 57.3487 65.4372C57.4775 64.6464 57.9806 64.046 58.7315 63.9141C59.4824 63.7823 60.1929 63.4015 60.7794 62.7865C62.3291 61.2341 62.4788 58.9887 61.3181 57.6562Z" fill="#95BD59"/>
<path d="M54.7655 62.0785C53.812 59.9347 53.8392 60.1011 53.6038 59.7143L54.7283 57.1227C54.9111 56.663 54.271 56.4324 54.0881 56.8921L53.2165 58.9263C52.1657 56.7138 51.5567 55.6222 50.3521 53.5222C50.9846 55.8075 51.2726 57.0407 52.0024 59.3946C50.4439 58.8107 49.7356 58.1642 49.4827 58.7216C49.2298 59.2791 50.1773 59.285 52.236 60.295C52.4014 60.7795 52.3741 60.6132 53.0766 62.8007L51.3235 62.0797C50.8643 61.9031 50.625 62.5437 51.0842 62.7203L53.3939 63.6866C54.8008 67.548 55.1316 68.5171 57.0425 71.7774L58.0056 71.3528C57.7157 70.6333 58.1223 69.9635 54.999 62.9789C55.7169 61.0571 56.3882 60.4267 55.8317 60.1815C55.7344 60.1129 55.3414 60.8659 54.7655 62.0785Z" fill="#B2C762"/>
<path d="M28.9271 61.9076C28.5106 61.9807 28.1908 62.1221 27.8711 62.2635C27.0919 62.7411 25.9551 62.5999 25.2642 62.0394C25.1674 61.9712 25.0706 61.903 24.9738 61.8348C21.7936 59.6662 17.6737 59.6226 15.8042 61.8256C15.5947 62.1181 15.3853 62.4105 15.2591 62.6883C15.0067 63.2439 14.4775 63.6777 13.8943 63.7801C11.3254 64.3164 9.34807 65.8566 8.92171 67.9767C8.48187 70.0139 9.67874 72.1047 11.8912 73.591C12.4718 74.0003 12.7327 74.551 12.7572 75.2285C12.7278 75.5745 12.865 75.8913 12.9189 76.2227C13.7801 78.8837 17.6157 80.3407 21.4073 79.4193C21.4906 79.4046 21.6572 79.3754 21.7405 79.3608C22.6434 79.117 23.7104 79.3558 24.2617 80.1111C24.4822 80.4133 24.7726 80.618 25.0629 80.8226C26.7645 81.8021 29.2097 81.0319 30.5365 79.1798C31.0951 78.4 31.3904 77.5812 31.3524 76.8209C31.3843 75.9632 31.9564 75.2662 32.776 75.0371C34.5682 74.4667 35.7958 73.0581 35.7958 73.0581C35.7958 73.0581 35.1931 71.4596 33.701 70.1877C33.0101 69.6273 32.792 68.8134 33.0873 67.9946C33.396 67.2586 33.4977 66.3034 33.2662 65.4066C32.8889 63.0868 30.9264 61.5566 28.9271 61.9076Z" fill="#95BD59"/>
<path d="M28.9633 70.7133C26.431 70.3894 26.5972 70.3605 25.9883 70.2965C24.4591 68.2662 24.2967 67.2736 23.6723 67.6378C23.1311 67.9875 24.001 68.6014 24.9502 70.2224C21.4629 69.81 19.9125 69.7402 18.196 69.6995C19.7309 70.1974 21.2658 70.6952 24.668 71.633C23.2241 72.7358 22.157 73.007 22.5011 73.5426C22.8453 74.0781 23.3884 73.2176 25.6501 71.887C26.1894 72.0481 26.0096 71.9944 28.4995 72.5809C27.2913 73.5575 26.2939 73.7315 26.638 74.267C26.9821 74.8026 27.6084 73.9275 29.5511 72.7377C36.9104 74.3462 36.4136 73.9224 39.3616 74.1737L39.6012 73.0259C38.9788 72.8793 38.1649 72.0854 29.9183 70.8019C28.5128 69.0052 28.3504 68.0125 27.8091 68.3622C27.3781 68.8629 28.2345 69.3941 28.9633 70.7133Z" fill="#B2C762"/>
<path d="M45.6004 61.081C49.6183 65.7554 48.6194 73.2694 43.2909 77.8705C37.9623 82.4715 30.3352 82.439 26.3172 77.7646C22.2993 73.0903 23.2982 65.5762 28.6268 60.9752C33.9553 56.3742 41.5824 56.4067 45.6004 61.081Z" fill="#EADFD1"/>
<path d="M41.7651 76.1889C45.3975 73.0218 46.8241 68.6938 44.9514 66.5221C43.0788 64.3504 38.6161 65.1573 34.9837 68.3245C31.3513 71.4916 29.9248 75.8196 31.7975 77.9913C33.6701 80.163 38.1328 79.3561 41.7651 76.1889Z" fill="#D1C3B4"/>
<path d="M46.8377 75.4277C49.3806 78.3999 48.8031 80.6362 47.0899 82.2168C45.2797 83.729 43.016 84.0392 40.4731 81.067C37.9302 78.0947 35.9784 72.9692 37.7885 71.4571C39.4049 69.808 44.1979 72.387 46.8377 75.4277Z" fill="#E7E2D5"/>
<path d="M106.863 58.0549C106.217 64.0556 100.169 68.4405 93.377 67.7502C86.5853 67.0599 81.5863 61.6191 82.316 55.6039C82.9625 49.6031 89.0105 45.2183 95.8022 45.9086C102.594 46.5989 107.593 52.0396 106.863 58.0549Z" fill="#EADFD1"/>
<path d="M102.672 61.1869C102.357 63.9693 98.3043 65.8704 93.6925 65.3977C88.9975 64.9395 85.4882 62.3139 85.7899 59.4488C86.1052 56.6664 90.1579 54.7653 94.7697 55.238C99.4783 55.779 102.987 58.4046 102.672 61.1869Z" fill="#D1C3B4"/>
<path d="M97.5702 68.5061C97.1668 72.3368 95.1206 73.4634 92.857 73.2607C90.5935 73.0579 88.8904 71.5608 89.2938 67.7302C89.6971 63.8995 92.1739 59.1084 94.4374 59.3112C96.701 59.5139 97.9735 64.6755 97.5702 68.5061Z" fill="#E7E2D5"/>
<path d="M117.398 59.8615C118.745 59.1993 119.471 57.8777 119.324 56.4527C119.311 56.3697 119.284 56.2038 119.27 56.1208C119.072 53.3392 117.917 50.9812 115.731 49.6565C111.442 46.9925 104.776 49.6936 100.967 55.7354C97.4939 61.2067 97.498 67.5209 100.745 70.6229C101.353 71.1993 102.282 71.1222 102.867 70.508C107.529 66.0237 112.314 62.2861 117.398 59.8615Z" fill="#DB5955"/>
<path d="M106.945 62.4619C109.14 59.0936 112.41 57.0706 115.337 57.1532C115.85 57.1483 116.24 56.9094 116.519 56.5195C116.798 56.1295 116.717 55.6324 116.47 55.1644C116.029 54.5601 115.505 53.9703 114.84 53.5756C111.604 51.5872 106.71 53.6396 103.844 58.1485C101.733 61.5021 101.313 65.2407 102.577 67.7459C102.825 68.2138 103.392 68.5403 103.975 68.4379C104.558 68.3355 105.004 67.9163 105.077 67.307C105.334 65.7278 105.924 64.09 106.945 62.4619Z" fill="#BC1B2C"/>
<path d="M113.768 55.1204C113.725 55.3842 113.446 55.7748 113.237 56.0678C113.167 56.1654 113.083 56.18 113 56.1946C112.917 56.2091 112.903 56.1261 112.806 56.0575C112.752 55.7252 112.67 55.2267 112.713 54.9629C112.825 54.6014 113.118 54.2939 113.382 54.3333C113.729 54.3581 113.88 54.7589 113.768 55.1204Z" fill="#E7C644"/>
<path d="M110.713 55.7312C110.838 55.9659 110.849 56.5623 110.834 56.9924C110.847 57.0755 110.778 57.1732 110.694 57.1877C110.611 57.2023 110.527 57.2169 110.43 57.1484C110.125 56.8596 109.71 56.4193 109.586 56.1845C109.435 55.7836 109.52 55.2557 109.84 55.1143C110.09 55.0706 110.479 55.3448 110.713 55.7312Z" fill="#E7C644"/>
<path d="M108.086 57.3828C108.293 57.6029 108.472 58.1698 108.539 58.5851C108.553 58.6681 108.567 58.7512 108.497 58.8488C108.427 58.9465 108.344 58.961 108.247 58.8925C107.872 58.7016 107.318 58.4568 107.111 58.2367C106.793 57.8651 106.795 57.3522 107.017 57.1423C107.324 56.9179 107.768 57.0112 108.086 57.3828Z" fill="#E7C644"/>
<path d="M105.859 59.3946C106.052 59.5314 106.48 60.0541 106.715 60.4399C106.728 60.5229 106.742 60.6059 106.672 60.7035C106.602 60.801 106.519 60.8155 106.436 60.8301C105.992 60.7369 105.382 60.6728 105.175 60.4529C104.788 60.1792 104.637 59.7788 104.846 59.4862C104.958 59.1252 105.471 59.1208 105.859 59.3946Z" fill="#E7C644"/>
<path d="M104.295 62.3191C104.475 62.3729 104.876 62.7293 105.083 62.9489C105.18 63.0173 105.193 63.1002 105.124 63.1976C105.137 63.2805 105.054 63.2951 104.971 63.3096C104.638 63.3678 104.125 63.3721 103.932 63.2354C103.572 63.1277 103.338 62.7423 103.477 62.5474C103.603 62.2696 103.922 62.1285 104.295 62.3191Z" fill="#E7C644"/>
<path d="M103.493 65.1985C103.673 65.2523 103.95 65.3744 104.143 65.511C104.143 65.511 104.24 65.5793 104.17 65.6767C104.184 65.7595 104.101 65.774 104.101 65.774C103.851 65.8176 103.532 65.9585 103.352 65.9047C103.089 65.8655 102.882 65.6461 102.938 65.4659C102.994 65.2857 103.23 65.1593 103.493 65.1985Z" fill="#E7C644"/>
<path d="M69.7634 56.4956C68.2342 53.9478 65.356 52.5741 62.0578 52.2975C61.7945 52.2582 61.4481 52.2334 61.1848 52.1941C59.7719 51.9292 58.4247 52.5911 57.8654 53.8831C55.4887 59.2461 50.9055 65.2505 44.6016 71.7263C43.7945 72.5497 43.8313 73.8228 44.6462 74.6188C48.5001 78.2958 55.9307 78.1916 62.3779 74.1646C69.6729 69.563 72.9186 61.6596 69.7634 56.4956Z" fill="#DB5955"/>
<path d="M54.6662 67.3196C58.7836 64.7228 61.1461 60.8156 61.0934 57.3324C61.0824 56.738 61.418 56.168 61.8907 55.9147C62.3635 55.6613 63.0432 55.6272 63.5269 55.9682C64.2874 56.4309 64.9083 57.0886 65.3761 57.8583C67.7985 61.6921 65.3295 67.5772 59.8906 71.0023C55.843 73.5017 51.3754 73.9453 48.3039 72.4401C47.6536 72.1284 47.3793 71.4951 47.4381 70.8033C47.5802 70.0969 48.0958 69.5805 48.7755 69.5463C50.7043 69.2929 52.7189 68.5133 54.6662 67.3196Z" fill="#BC1B2C"/>
<path d="M63.4675 59.0491C63.2181 59.0926 62.6766 59.4427 62.2879 59.6809C62.2048 59.6954 62.1487 59.8755 62.1623 59.9583C62.1758 60.0411 62.2725 60.1094 62.3692 60.1777C62.812 60.2707 63.338 60.3491 63.6706 60.2911C64.1696 60.2039 64.448 59.8146 64.3938 59.4834C64.4228 59.1377 63.9665 58.9619 63.4675 59.0491Z" fill="#E7C644"/>
<path d="M62.7364 62.8557C62.4596 62.7335 61.6836 62.6985 61.1707 62.7028C61.0875 62.7174 60.921 62.7465 60.9481 62.9123C60.9752 63.0782 60.9056 63.1756 61.0023 63.244C61.3197 63.615 61.8307 64.1228 62.1907 64.2305C62.7442 64.4749 63.23 64.3047 63.4255 63.9294C63.5377 63.5686 63.2899 63.1002 62.7364 62.8557Z" fill="#E7C644"/>
<path d="M60.7871 66.0159C60.4966 65.8105 59.8592 65.5804 59.3188 65.4187C59.2219 65.3502 59.0689 65.4624 58.9856 65.4769C58.9023 65.4915 58.9294 65.6575 58.9565 65.8235C59.2045 66.2925 59.4796 66.9274 59.7702 67.1328C60.1712 67.4896 60.7814 67.5538 61.0739 67.2465C61.3664 66.9392 61.1881 66.3727 60.7871 66.0159Z" fill="#E7C644"/>
<path d="M58.3258 68.6652C58.1047 68.362 57.5228 67.9509 57.1348 67.6768C57.0378 67.6083 56.9544 67.6229 56.7876 67.652C56.7178 67.7497 56.648 67.8473 56.6616 67.9304C56.7431 68.4289 56.8653 69.1767 57.0864 69.4799C57.4181 69.9347 57.9729 70.1796 58.2793 69.9552C58.6692 69.7162 58.6575 69.12 58.3258 68.6652Z" fill="#E7C644"/>
<path d="M54.8682 70.458C54.7439 70.2232 54.412 69.7683 54.1073 69.4796C54.0103 69.411 53.9268 69.4256 53.8434 69.4402C53.7599 69.4547 53.69 69.5524 53.7036 69.6356C53.6881 70.0657 53.6164 70.6766 53.7406 70.9114C53.892 71.3124 54.2801 71.5865 54.6139 71.5282C54.9342 71.3868 55.0331 70.9421 54.8682 70.458Z" fill="#E7C644"/>
<path d="M51.4513 71.4736C51.4241 71.3073 51.1893 70.9209 51.0651 70.6862C51.0515 70.6031 50.968 70.6176 50.8846 70.6322C50.8011 70.6468 50.8011 70.6468 50.7313 70.7445C50.6886 71.0084 50.5896 71.4531 50.6168 71.6193C50.6711 71.9518 50.8788 72.172 51.1292 72.1282C51.3659 72.0014 51.4921 71.7229 51.4513 71.4736Z" fill="#E7C644"/>
<path d="M87.8581 64.9378C87.8499 58.1989 82.3598 52.8094 75.5958 52.8999C68.8317 52.9904 63.355 58.5266 63.3633 65.2655C63.3715 72.0044 68.8615 77.3939 75.6256 77.3034C82.3897 77.2129 87.8664 71.6767 87.8581 64.9378Z" fill="#6EAC69"/>
<path d="M86.5745 65.7099C86.9934 59.5826 82.4276 54.3325 76.3766 53.9834C70.3255 53.6343 65.0805 58.3185 64.6616 64.4457C64.2427 70.5729 68.8084 75.823 74.8595 76.1721C80.9106 76.5212 86.1555 71.8371 86.5745 65.7099Z" fill="#E7FFA8"/>
<path d="M80.6475 64.2196C81.0949 66.9582 79.2126 69.5918 76.4646 70.0721C73.7165 70.5524 71.102 68.7047 70.6546 65.9661C70.2071 63.2275 72.0895 60.5939 74.8375 60.1136C77.5856 59.6333 80.2001 61.481 80.6475 64.2196Z" fill="#B4D16F"/>
<path d="M75.4673 68.124C75.4129 67.7915 75.5682 67.166 75.6671 66.7213C75.6535 66.6382 75.8069 66.5259 75.8903 66.5113C75.9738 66.4967 76.0708 66.5653 76.1679 66.6338C76.4027 67.0202 76.7482 67.5583 76.8026 67.8908C76.8841 68.3895 76.6182 68.8633 76.2844 68.9216C75.8671 68.9945 75.5624 68.7058 75.4673 68.124Z" fill="#E7FFA8"/>
<path d="M74.5132 62.3781C74.5676 62.7106 74.9131 63.2486 75.148 63.635C75.1615 63.7182 75.342 63.7721 75.4255 63.7576C75.509 63.743 75.5788 63.6453 75.6487 63.5476C75.7477 63.1029 75.9029 62.4774 75.8486 62.1449C75.767 61.6462 75.3653 61.289 75.0314 61.3473C74.6141 61.4201 74.4317 61.8794 74.5132 62.3781Z" fill="#E7FFA8"/>
<path d="M77.6538 67.4027C77.3633 67.1974 77.0186 66.6602 76.7842 66.2744C76.7707 66.1914 76.7571 66.1084 76.8268 66.0108C76.8965 65.9133 76.9798 65.8987 77.0631 65.8842C77.5066 65.9774 78.1302 66.1245 78.4207 66.3298C78.808 66.6035 78.9726 67.0869 78.7635 67.3795C78.5543 67.6721 78.0411 67.6765 77.6538 67.4027Z" fill="#E7FFA8"/>
<path d="M72.9091 64.0217C73.1996 64.227 73.8231 64.3741 74.2666 64.4673C74.3498 64.4527 74.4331 64.4382 74.5028 64.3406C74.5725 64.2431 74.559 64.1601 74.5454 64.0772C74.3111 63.6914 73.9664 63.1542 73.6759 62.9489C73.2886 62.6752 72.7754 62.6795 72.5663 62.9721C72.2604 63.1963 72.425 63.6796 72.9091 64.0217Z" fill="#E7FFA8"/>
<path d="M78.678 65.3388C78.3454 65.3969 77.7227 65.2501 77.2798 65.1571C77.1967 65.1717 77.0865 65.0206 77.0729 64.9378C77.0594 64.855 77.129 64.7577 77.1986 64.6603C77.5873 64.4221 78.1287 64.0721 78.4613 64.014C78.9603 63.9269 79.4302 64.1855 79.4843 64.5167C79.5385 64.8479 79.1769 65.2517 78.678 65.3388Z" fill="#E7FFA8"/>
<path d="M72.8684 66.3379C73.201 66.2798 73.7424 65.9298 74.1311 65.6916C74.2143 65.6771 74.2703 65.4969 74.2568 65.4141C74.2433 65.3313 74.1466 65.2631 74.0499 65.1948C73.6071 65.1018 72.9844 64.955 72.6517 65.0131C72.1528 65.1002 71.7912 65.5041 71.8454 65.8353C71.8995 66.1664 72.3695 66.425 72.8684 66.3379Z" fill="#E7FFA8"/>
<path d="M77.8922 63.1628C77.683 63.4555 77.1408 63.8063 76.7516 64.045C76.6683 64.0596 76.585 64.0741 76.4882 64.0057C76.3914 63.9373 76.3778 63.8543 76.3642 63.7713C76.463 63.3273 76.6179 62.7027 76.827 62.4101C77.1059 62.02 77.592 61.8497 77.8825 62.0549C78.1594 62.1773 78.2407 62.6752 77.8922 63.1628Z" fill="#E7FFA8"/>
<path d="M74.5025 67.9423C74.7117 67.6497 74.8666 67.0251 74.9653 66.581C74.9518 66.498 74.9382 66.415 74.8414 66.3466C74.7446 66.2782 74.6613 66.2927 74.578 66.3073C74.1888 66.546 73.6465 66.8969 73.4374 67.1895C73.1585 67.5797 73.1566 68.0921 73.4471 68.2974C73.7376 68.5027 74.2237 68.3324 74.5025 67.9423Z" fill="#E7FFA8"/>
<path d="M53.6316 119.355L96.1594 111.982C98.4021 111.593 100.535 110.541 102.241 108.966C114.401 97.7298 120.942 80.8995 118.336 63.5221L17.166 81.061C20.3534 98.3376 31.9208 112.029 46.9216 118.556C49.037 119.469 51.3889 119.744 53.6316 119.355Z" fill="white"/>
<path d="M118.763 73.8502C118.793 72.9995 118.822 72.1488 118.838 71.2159L19.0906 88.3735C19.393 89.1671 19.7091 90.043 20.0116 90.8366L118.763 73.8502Z" fill="#ABE0E3"/>
<path d="M114.314 92.2049C116.009 88.5163 117.248 84.6518 117.961 80.7081L23.0071 97.1025C25.0461 100.656 27.4455 103.807 30.1496 106.736L114.314 92.2049Z" fill="#ABE0E3"/>
</svg>
