<svg width="124" height="89" viewBox="0 0 124 89" fill="none" xmlns="http://www.w3.org/2000/svg">
<path d="M67.712 55.1017C58.8436 53.2112 52.0514 50.4314 43.9858 45.3915C36.6279 40.7499 35.753 32.2402 42.209 26.5134C42.2457 26.4198 42.3755 26.3642 42.3755 26.3642C43.2079 25.618 44.2655 25.3987 45.3257 25.7239C57.3772 29.1345 68.8216 33.8183 79.8449 39.8513C80.8317 40.3639 81.4121 41.3622 81.5468 42.3955C81.5101 42.4892 81.5664 42.6209 81.5664 42.6209C82.5907 51.3004 76.1714 56.9335 67.712 55.1017Z" fill="#EADFD1"/>
<path d="M81.7559 42.6439C81.7926 42.5504 81.7363 42.419 81.7363 42.419C81.6384 41.2947 81.0219 40.3921 80.0361 39.8808C69.0238 33.862 57.5909 29.1893 45.5514 25.7868C45.2726 25.6728 44.8641 25.6143 44.5119 25.6872C44.4752 25.7806 44.4752 25.7807 44.4385 25.8741C44.2038 27.2962 44.1184 28.8877 44.2555 30.4618C44.2972 31.4547 44.8207 32.3193 45.5839 32.8481C57.0514 41.0047 64.9522 44.2338 78.3025 46.2203C79.2125 46.3753 80.0832 46.0806 80.7851 45.3916C81.1178 45.0938 81.4871 44.7026 81.8197 44.4048C81.8539 43.7682 81.7584 43.1871 81.7559 42.6439Z" fill="#D1C3B4"/>
<path d="M51.3456 19.5302C47.8115 18.0845 43.8297 20.2564 43.3088 24.0613C43.074 25.4855 42.9885 27.0795 43.1257 28.6559C43.1674 29.6503 43.6912 30.5162 44.4548 31.0458C55.929 39.2146 63.8344 42.4486 77.1926 44.4381C78.103 44.5934 78.9743 44.2982 79.6766 43.6082C81.6735 41.8188 83.1124 39.8012 84.0863 37.5933C85.0602 35.3854 83.9416 34.3849 81.7583 31.9714L51.3456 19.5302Z" fill="#DB5955"/>
<path d="M81.765 31.9551C81.765 31.9551 76.9025 28.121 66.7692 24.5193C62.9762 23.1852 51.4505 19.5568 51.4505 19.5568C46.3753 17.9153 44.325 20.1162 43.4689 23.6739C43.2537 25.3227 43.6894 27.2377 45.0305 28.2204C57.2149 37.8714 65.5911 38.8004 80.3026 40.9094C81.0269 40.9885 82.5097 40.5095 83.026 39.7437C83.4125 39.0334 83.7991 38.323 84.1856 37.6127C85.0663 35.3677 83.8525 33.7858 81.765 31.9551Z" fill="#E18668"/>
<path d="M47.2897 33.0259L46.1891 29.1911C47.5676 24.8429 53.3172 21.5202 55.142 20.739C54.2638 20.4886 53.4225 20.1442 52.8248 20.0086C45.3807 24.0567 44.8211 27.976 44.7843 28.0701L45.324 31.6753C45.9047 32.1313 46.6156 32.5316 47.2897 33.0259Z" fill="#F7E4D8"/>
<path d="M81.7542 31.881C81.7542 31.881 81.6605 31.8427 81.5102 31.672C76.2454 37.0581 75.8298 40.0568 75.7559 40.2452L76.6542 44.3276C76.8416 44.4042 76.9722 44.3484 77.1595 44.425C77.5711 44.4841 78.0196 44.449 78.3744 44.3756L77.5328 40.4256C78.3059 37.9008 80.6857 35.1591 82.8438 32.9823C82.4863 32.5083 82.1856 32.1667 81.7542 31.881Z" fill="#F7E4D8"/>
<path d="M61.3662 40.5047L60.5454 36.7835C62.0552 32.3781 68.2286 27.1515 69.9953 25.6905C69.1535 25.3459 68.3117 25.0014 67.4329 24.7509C58.9171 32.0765 58.2834 36.1852 58.2465 36.2794L58.7102 39.5268C59.5521 39.8714 60.4874 40.2543 61.3662 40.5047Z" fill="#F7E4D8"/>
<path d="M52.6363 33.3414C54.0538 29.447 60.2237 24.77 63.1073 23.2222C62.136 22.9336 61.0713 22.6068 60.0434 22.1859C50.7635 27.8814 50.391 31.8763 50.2239 32.0262L50.6306 35.1395C51.5847 35.7486 52.4823 36.2252 53.343 36.796L52.6363 33.3414Z" fill="#F7E4D8"/>
<path d="M69.1598 38.9806C70.3749 35.3274 74.7067 31.2022 77.3109 28.9913C76.5992 28.5908 75.8876 28.1904 75.0454 27.8458C67.3464 34.7434 66.8799 38.7029 66.8061 38.8912L67.5704 42.4806C68.3559 42.6928 69.2349 42.9433 70.1508 43.0997L69.1598 38.9806Z" fill="#F7E4D8"/>
<path d="M42.7745 51.9577C33.9061 50.0672 27.1139 47.2874 19.0483 42.2475C11.6904 37.6058 10.8155 29.0962 17.2715 23.3694C17.3082 23.2757 17.4379 23.2201 17.4379 23.2201C18.2703 22.4739 19.328 22.2547 20.3882 22.5799C32.4397 25.9905 43.8841 30.6742 54.9074 36.7073C55.8942 37.2198 56.4745 38.2182 56.6093 39.2515C56.5726 39.3452 56.6289 39.4769 56.6289 39.4769C57.6532 48.1564 51.2339 53.7895 42.7745 51.9577Z" fill="#EADFD1"/>
<path d="M56.8184 39.4998C56.8551 39.4064 56.7988 39.275 56.7988 39.275C56.7009 38.1506 56.0844 37.2481 55.0987 36.7368C44.0863 30.718 32.6534 26.0453 20.6139 22.6427C20.3351 22.5288 19.9266 22.4702 19.5744 22.5432C19.5377 22.6366 19.5377 22.6366 19.501 22.73C19.2663 24.1522 19.1809 25.7437 19.318 27.3178C19.3597 28.3107 19.8832 29.1752 20.6464 29.704C32.1139 37.8606 40.0147 41.0897 53.365 43.0763C54.275 43.2313 55.1457 42.9366 55.8476 42.2476C56.1803 41.9498 56.5496 41.5586 56.8822 41.2608C56.8234 40.5862 56.8209 40.043 56.8184 39.4998Z" fill="#D1C3B4"/>
<path d="M26.4081 16.3862C22.874 14.9404 18.8922 17.1124 18.3713 20.9172C18.1365 22.3415 18.051 23.9354 18.1882 25.5119C18.2299 26.5063 18.7537 27.3721 19.5173 27.9017C30.9915 36.0706 38.897 39.3045 52.2551 41.2941C53.1655 41.4493 54.0368 41.1542 54.7391 40.4641C56.736 38.6748 58.1749 36.6571 59.1488 34.4493C60.1226 32.2414 59.0041 31.2408 56.8208 28.8274L26.4081 16.3862Z" fill="#DB5955"/>
<path d="M56.8275 28.811C56.8275 28.811 51.965 24.9769 41.8317 21.3753C38.0387 20.0411 26.5131 16.4128 26.5131 16.4128C21.4378 14.7713 19.3875 16.9721 18.5314 20.5298C18.3162 22.1787 18.7519 24.0937 20.093 25.0764C32.2774 34.7274 40.6536 35.6564 55.3651 37.7654C56.0894 37.8445 57.5722 37.3654 58.0885 36.5996C58.475 35.8893 58.8616 35.179 59.2481 34.4687C60.1288 32.2237 58.915 30.6417 56.8275 28.811Z" fill="#E18668"/>
<path d="M22.3522 29.8819L21.2516 26.047C22.6301 21.6989 28.3797 18.3762 30.2045 17.5949C29.3263 17.3446 28.485 17.0001 27.8873 16.8646C20.4432 20.9127 19.8836 24.832 19.8468 24.926L20.3865 28.5312C20.9672 28.9873 21.6781 29.3875 22.3522 29.8819Z" fill="#F7E4D8"/>
<path d="M56.8167 28.737C56.8167 28.737 56.723 28.6987 56.5727 28.5279C51.3078 33.914 50.8923 36.9128 50.8184 37.1011L51.7168 41.1836C51.9041 41.2602 52.0347 41.2043 52.222 41.281C52.6336 41.34 53.0821 41.3049 53.437 41.2315L52.5953 37.2815C53.3684 34.7568 55.7482 32.015 57.9063 29.8383C57.5488 29.3643 57.2481 29.0227 56.8167 28.737Z" fill="#F7E4D8"/>
<path d="M36.4286 37.3607L35.6079 33.6394C37.1177 29.2341 43.2911 24.0074 45.0578 22.5465C44.216 22.2019 43.3742 21.8573 42.4954 21.6069C33.9796 28.9325 33.3459 33.0412 33.309 33.1353L33.7727 36.3828C34.6146 36.7274 35.4564 37.0719 36.4286 37.3607Z" fill="#F7E4D8"/>
<path d="M27.6988 30.1974C29.1163 26.3029 35.2862 21.626 38.1698 20.0782C37.1985 19.7896 36.1338 19.4627 35.1059 19.0418C25.826 24.7373 25.4535 28.7323 25.2864 28.8821L25.693 31.9955C26.6472 32.6045 27.5448 33.0812 28.4055 33.652L27.6988 30.1974Z" fill="#F7E4D8"/>
<path d="M44.2223 35.8366C45.4374 32.1834 49.7693 28.0582 52.3734 25.8473C51.6617 25.4468 50.9501 25.0463 50.108 24.7017C42.4089 31.5994 41.9424 35.5589 41.8686 35.7471L42.6329 39.3366C43.4184 39.5488 44.2974 39.7993 45.2133 39.9557L44.2223 35.8366Z" fill="#F7E4D8"/>
<path d="M87.3135 35.8135L78.5969 58.0659C77.7142 60.3193 83.2238 64.7551 90.8671 67.8857C98.5104 71.0164 105.454 71.7904 106.374 69.4431L115.09 47.1906L87.3135 35.8135Z" fill="#332C5E"/>
<path d="M82.2137 63.2206C83.3226 64.0015 84.5253 64.8206 85.9897 65.5279L96.246 39.4255L92.2109 37.7778L82.2137 63.2206Z" fill="#474C52"/>
<path d="M98.9827 47.2481C106.228 50.2132 113.12 50.0176 114.377 46.8112C115.634 43.6048 110.78 38.6018 103.535 35.6368C96.2898 32.6717 89.3975 32.8674 88.1404 36.0738C86.8834 39.2802 91.7377 44.2831 98.9827 47.2481Z" fill="#F2F8FB"/>
<path d="M100.562 43.2197C103.438 44.3962 106.082 44.5541 106.467 43.5725C106.852 42.5908 104.832 40.8413 101.956 39.6648C99.0799 38.4884 96.4361 38.3305 96.0511 39.3121C95.6661 40.2938 97.6855 42.0433 100.562 43.2197Z" fill="#DD7260"/>
<path d="M103.02 36.9485C110.464 39.9955 114.182 44.5593 113.448 46.4317C112.751 48.2105 106.941 48.983 99.4976 45.936C92.0539 42.889 88.336 38.3252 89.0699 36.4528C89.8038 34.5804 95.5766 33.9015 103.02 36.9485ZM103.681 35.2634C96.051 32.1402 88.7527 32.3033 87.395 35.7673C86.0373 39.2312 91.2073 44.498 98.8371 47.6211C106.467 50.7443 113.765 50.5812 115.123 47.1173C116.481 43.6533 111.404 38.4246 103.681 35.2634Z" fill="#332C5E"/>
<path d="M106.559 72.3677C98.7586 75.7227 88.6558 69.5183 88.6558 69.5183C88.6558 69.5183 91.1642 57.8899 98.965 54.5349C106.766 51.18 116.869 57.3844 116.869 57.3844C116.869 57.3844 114.36 69.0128 106.559 72.3677Z" fill="#579485"/>
<path d="M68.2056 35.917L59.489 58.1694C58.6063 60.4229 64.1158 64.8586 71.7592 67.9893C79.4025 71.1199 86.3464 71.8939 87.2659 69.5466L95.9825 47.2941L68.2056 35.917Z" fill="#332C5E"/>
<path d="M95.362 46.9527C94.1139 50.1365 87.2246 50.3596 79.9676 47.3897C72.7107 44.4198 67.8772 39.3991 69.1253 36.2153C70.3735 33.0316 77.2628 32.8085 84.5197 35.7784C91.7767 38.7483 96.6102 43.769 95.362 46.9527Z" fill="#F2F8FB"/>
<path d="M87.4515 43.7141C87.0846 44.6495 84.4294 44.5405 81.5466 43.3613C78.6637 42.1821 76.669 40.3892 77.036 39.4537C77.4396 38.4247 80.0581 38.6272 82.9409 39.8064C85.7308 40.9476 87.8185 42.7786 87.4515 43.7141Z" fill="#DD7260"/>
<path d="M83.875 37.1468C91.3187 40.1938 95.0367 44.7575 94.3028 46.6299C93.5689 48.5023 87.796 49.1812 80.3523 46.1342C72.9086 43.0872 69.1907 38.5235 69.9246 36.6511C70.6585 34.7787 76.4313 34.0998 83.875 37.1468ZM84.5355 35.4616C76.9057 32.3385 69.6075 32.5016 68.2498 35.9655C66.8921 39.4294 72.062 44.6962 79.6918 47.8194C87.3216 50.9425 94.6199 50.7794 95.9776 47.3155C97.3353 43.8516 92.2584 38.6229 84.5355 35.4616Z" fill="#332C5E"/>
<path d="M91.471 82.512L15.6759 51.5935C7.59484 48.297 3.61136 38.9673 6.81128 30.8315L112.051 73.7613C108.722 81.9527 99.5521 85.8085 91.471 82.512Z" fill="white"/>
</svg>
